<svg version="1.0" xmlns="http://www.w3.org/2000/svg"
 width="1116.000000pt" height="346.000000pt" viewBox="0 0 1116.000000 346.000000"
 preserveAspectRatio="xMidYMid meet">

<g transform="translate(0.000000,346.000000) scale(0.100000,-0.100000)"
fill="#8fbed8" stroke="none">
<path d="M2788 3027 l-2778 -432 0 -862 c0 -475 3 -863 6 -863 3 0 1256 -194
2784 -430 l2779 -430 2748 425 c1511 234 2765 428 2786 432 l37 6 0 861 0 861
-2772 429 c-1525 235 -2782 429 -2793 431 -11 2 -1270 -191 -2797 -428z m3700
-387 c113 -69 99 -159 -123 -820 -144 -429 -176 -552 -152 -577 4 -4 29 1 55
10 87 32 120 16 107 -50 -24 -132 -193 -219 -310 -160 -91 45 -128 155 -99
293 9 44 67 234 129 424 145 441 188 603 210 784 9 79 43 116 107 116 25 0 56
-8 76 -20z m528 4 c46 -22 77 -74 76 -130 -3 -111 -31 -211 -208 -739 -68
-203 -129 -403 -136 -442 -15 -93 -8 -103 56 -79 25 10 58 16 73 14 27 -3 28
-5 28 -55 -1 -60 -19 -90 -84 -140 -52 -40 -104 -55 -165 -47 -66 9 -106 40
-138 103 -53 103 -39 180 107 615 134 400 176 556 220 830 13 77 89 109 171
70z m-3051 -139 c222 -28 271 -28 335 5 77 39 115 17 108 -62 -6 -62 -46 -121
-101 -150 -35 -19 -61 -23 -162 -25 l-120 -3 -12 -29 c-7 -17 -46 -145 -88
-285 -144 -491 -249 -724 -382 -847 -66 -62 -102 -79 -163 -79 -44 0 -56 5
-81 29 -36 37 -37 66 -2 94 61 49 104 103 141 176 51 97 74 164 167 472 42
139 96 307 121 373 24 66 44 121 44 123 0 2 -35 3 -77 3 -120 0 -182 -38 -212
-132 -13 -39 -26 -48 -72 -48 -46 0 -82 24 -108 70 -33 59 -26 149 16 212 33
50 105 102 172 123 62 20 205 14 476 -20z m513 -469 c15 -8 38 -26 52 -41 22
-23 25 -36 25 -95 0 -38 2 -66 6 -62 3 4 29 37 58 73 77 97 130 132 207 137
59 4 64 3 100 -31 35 -32 38 -39 42 -100 3 -54 0 -75 -18 -112 -39 -81 -96
-99 -165 -52 -35 24 -40 25 -66 12 -81 -42 -257 -318 -344 -540 -58 -149 -76
-183 -105 -195 -59 -24 -169 36 -185 102 -5 17 9 65 46 159 106 275 159 452
159 536 0 40 -5 53 -25 71 -45 39 -30 98 33 131 45 24 140 28 180 7z m831 -4
c50 -27 74 -75 67 -137 -9 -83 -75 -263 -187 -507 -27 -59 -49 -114 -49 -123
0 -32 42 -13 103 48 100 98 196 235 332 473 70 120 138 229 151 242 28 24 92
30 139 12 30 -12 75 -57 75 -77 0 -7 -36 -91 -79 -186 -104 -226 -157 -360
-170 -431 -18 -97 0 -125 59 -91 31 18 72 19 88 3 28 -28 6 -112 -44 -162 -49
-48 -102 -69 -175 -70 -75 0 -102 12 -146 71 -26 34 -28 43 -27 123 l1 87 -47
-56 c-123 -148 -235 -224 -330 -225 -110 -1 -177 61 -187 173 -7 76 21 170
113 377 111 249 122 292 80 319 -52 34 -33 104 36 135 57 26 151 27 197 2z
m2471 -18 c264 -147 160 -688 -174 -905 -91 -60 -158 -81 -251 -81 -147 0
-232 47 -287 160 -31 63 -33 72 -33 177 0 87 5 125 24 185 74 237 239 421 435
486 25 8 77 12 136 11 86 -2 101 -6 150 -33z"/>
<path d="M7506 1817 c-120 -123 -203 -311 -212 -482 -6 -101 6 -138 45 -143
89 -13 224 164 296 388 22 67 28 106 29 181 1 108 -8 129 -57 129 -24 0 -44
-14 -101 -73z"/>
</g>
</svg>
